<svg width="16" height="16" viewBox="0 0 16 16" fill="none" xmlns="http://www.w3.org/2000/svg">
<g clip-path="url(#clip0_29636_3988)">
<path d="M7.99996 15.3333C12.0433 15.3333 15.3333 12.0436 15.3333 7.99996C15.3333 7.30202 15.2359 6.61422 15.043 5.95551C14.9479 5.63161 14.6097 5.44556 14.2849 5.5406C13.9607 5.63533 13.7752 5.97476 13.87 6.29867C14.0298 6.84592 14.1111 7.41854 14.1111 7.99996C14.1111 11.3696 11.3696 14.1111 7.99996 14.1111C4.63034 14.1111 1.88885 11.3696 1.88885 7.99996C1.88885 4.63034 4.63034 1.88885 7.99996 1.88885C9.22457 1.88885 10.4028 2.24692 11.4072 2.92413C11.6868 3.11286 12.0669 3.03871 12.2554 2.75911C12.4439 2.47922 12.3704 2.09937 12.0905 1.91078C10.8835 1.09691 9.4691 0.666626 7.99996 0.666626C3.95657 0.666626 0.666626 3.95627 0.666626 7.99996C0.666626 12.0436 3.95657 15.3333 7.99996 15.3333Z" fill="#FF3F3A"/>
<path d="M14.8618 1.52848L7.99984 8.39014L5.80452 6.19515C5.54411 5.9349 5.12223 5.9349 4.86182 6.19515C4.60156 6.45557 4.60156 6.87744 4.86182 7.13786L7.52848 9.80452C7.65885 9.9349 7.8291 9.99984 7.99984 9.99984C8.17057 9.99984 8.34082 9.9349 8.47119 9.80452L15.8045 2.47119C16.0648 2.21077 16.0648 1.7889 15.8045 1.52848C15.5441 1.26823 15.1222 1.26823 14.8618 1.52848Z" fill="#FF3F3A"/>
</g>
<defs>
<clipPath id="clip0_29636_3988">
<rect width="16" height="16" fill="white"/>
</clipPath>
</defs>
</svg>
