<svg width="58" height="50" viewBox="0 0 58 50" fill="none" xmlns="http://www.w3.org/2000/svg">
<g clip-path="url(#clip0_2_743)">
<rect x="0.429504" width="52.5184" height="50" rx="19" fill="#F03E3D"/>
<path d="M26.8987 33.1429C27.0416 33.1429 27.1844 33.0893 27.2916 32.9821L32.8541 27.625C32.9344 27.5446 34.8987 25.75 34.8987 23.6071C34.8987 20.9911 33.3005 19.4286 30.6309 19.4286C29.0684 19.4286 27.6041 20.6607 26.8987 21.3571C26.1934 20.6607 24.7291 19.4286 23.1666 19.4286C20.4969 19.4286 18.8987 20.9911 18.8987 23.6071C18.8987 25.75 20.863 27.5446 20.9344 27.6071L26.5059 32.9821C26.613 33.0893 26.7559 33.1429 26.8987 33.1429Z" fill="white"/>
</g>
<defs>
<clipPath id="clip0_2_743">
<rect width="57.4105" height="50" fill="white" transform="translate(0.429504)"/>
</clipPath>
</defs>
</svg>
