<svg width="59" height="50" viewBox="0 0 59 50" fill="none" xmlns="http://www.w3.org/2000/svg">
<g clip-path="url(#clip0_2_735)">
<rect x="0.714722" width="52.5184" height="50" rx="19" fill="#FAB005"/>
<path d="M28.0531 23.6429L29.2228 24.1875L30.9638 23.6696V22.4554C30.9638 20.3929 29.2228 18.7411 27.1424 18.7411C25.071 18.7411 23.321 20.3839 23.321 22.4286V27.9643C23.321 28.4732 22.9103 28.875 22.4103 28.875C21.9103 28.875 21.4996 28.4732 21.4996 27.9643V25.625H18.571C18.571 27.9732 18.571 28 18.571 28C18.571 30.1161 20.2853 31.8304 22.4013 31.8304C24.4996 31.8304 26.2317 30.1429 26.2317 28.0536V22.5893C26.2317 22.0893 26.6424 21.6786 27.1424 21.6786C27.6424 21.6786 28.0531 22.0893 28.0531 22.5893V23.6429ZM32.7853 25.625V28.0804C32.7853 28.5804 32.3746 28.9821 31.8746 28.9821C31.3746 28.9821 30.9638 28.5804 30.9638 28.0804V25.6696L29.2228 26.1875L28.0531 25.6429V28.0357C28.0531 30.1339 29.7763 31.8304 31.8835 31.8304C33.9996 31.8304 35.7138 30.1161 35.7138 28C35.7138 28 35.7138 27.9732 35.7138 25.625H32.7853Z" fill="white"/>
</g>
<defs>
<clipPath id="clip0_2_735">
<rect width="57.4106" height="50" fill="white" transform="translate(0.714722)"/>
</clipPath>
</defs>
</svg>
