<svg width="59" height="50" viewBox="0 0 59 50" fill="none" xmlns="http://www.w3.org/2000/svg">
<rect width="52.5184" height="50" rx="19" fill="#7752BE"/>
<path d="M31.9321 27.5982L22.7893 18.4554C22.6821 18.3393 22.5393 18.2857 22.3875 18.2857C22.316 18.2857 22.2357 18.3036 22.1732 18.3304C21.9589 18.4196 21.816 18.625 21.816 18.8571V32.2857C21.816 32.5179 21.9589 32.7232 22.1732 32.8125C22.2357 32.8393 22.316 32.8571 22.3875 32.8571C22.5393 32.8571 22.6821 32.7946 22.7893 32.6875L25.575 29.9018L27.2803 33.9375C27.4053 34.2232 27.7357 34.3661 28.0303 34.2411L29.6107 33.5714C29.8964 33.4464 30.0393 33.1161 29.9143 32.8214L28.1196 28.5714H31.5303C31.7625 28.5714 31.9678 28.4286 32.0571 28.2143C32.1464 28.0089 32.1018 27.7589 31.9321 27.5982Z" fill="white"/>
</svg>
